name rise49.25peak52.1432fall72.8391.mot
datacolumns 19
datarows 24
range 4.14166100000000 4.17999000000000
endheader
time	ground_force1_vx	ground_force1_vy	ground_force1_vz	ground_force1_px	ground_force1_py	ground_force1_pz	ground_force2_vx	ground_force2_vy	ground_force2_vz	ground_force2_px	ground_force2_py	ground_force2_pz	ground_torque1_x	ground_torque1_y	ground_torque1_z	ground_torque2_x	ground_torque2_y	ground_torque2_z	
4.14166100000000	63.68219400000000	777.11110199999996	54.15007500000000	0.33804700000000	0.00000000000000	0.08497300000000	0.00000000000000	0.00000000000000	0.00000000000000	0.00000000000000	0.00000000000000	0.00000000000000	0.00000000000000	25.22790000000000	0.00000000000000	0.00000000000000	0.00000000000000	0.00000000000000	
4.14331300000000	63.01198200000000	778.50336700000003	54.15910900000000	0.33729800000000	0.00000000000000	0.08494400000000	0.00000000000000	0.00000000000000	0.00000000000000	0.00000000000000	0.00000000000000	0.00000000000000	0.00000000000000	25.26507500000000	0.00000000000000	0.00000000000000	0.00000000000000	0.00000000000000	
4.14498700000000	62.34693900000000	779.76915499999996	54.15391600000000	0.33657800000000	0.00000000000000	0.08491200000000	0.00000000000000	0.00000000000000	0.00000000000000	0.00000000000000	0.00000000000000	0.00000000000000	0.00000000000000	25.29513400000000	0.00000000000000	0.00000000000000	0.00000000000000	0.00000000000000	
4.14664600000000	61.68740300000000	780.90856099999996	54.13443300000000	0.33588700000000	0.00000000000000	0.08487900000000	0.00000000000000	0.00000000000000	0.00000000000000	0.00000000000000	0.00000000000000	0.00000000000000	0.00000000000000	25.31794600000000	0.00000000000000	0.00000000000000	0.00000000000000	0.00000000000000	
4.14831600000000	61.03365300000000	781.92184099999997	54.10059500000000	0.33522200000000	0.00000000000000	0.08484500000000	0.00000000000000	0.00000000000000	0.00000000000000	0.00000000000000	0.00000000000000	0.00000000000000	0.00000000000000	25.33337500000000	0.00000000000000	0.00000000000000	0.00000000000000	0.00000000000000	
4.14998100000000	60.38591300000000	782.80942500000003	54.05235000000000	0.33458300000000	0.00000000000000	0.08480900000000	0.00000000000000	0.00000000000000	0.00000000000000	0.00000000000000	0.00000000000000	0.00000000000000	0.00000000000000	25.34128600000000	0.00000000000000	0.00000000000000	0.00000000000000	0.00000000000000	
4.15165200000000	59.74435700000000	783.57192399999997	53.98965500000000	0.33396700000000	0.00000000000000	0.08477300000000	0.00000000000000	0.00000000000000	0.00000000000000	0.00000000000000	0.00000000000000	0.00000000000000	0.00000000000000	25.34154800000000	0.00000000000000	0.00000000000000	0.00000000000000	0.00000000000000	
4.15331900000000	59.10911300000000	784.21013400000004	53.91248500000000	0.33337300000000	0.00000000000000	0.08473500000000	0.00000000000000	0.00000000000000	0.00000000000000	0.00000000000000	0.00000000000000	0.00000000000000	0.00000000000000	25.33403300000000	0.00000000000000	0.00000000000000	0.00000000000000	0.00000000000000	
4.15498700000000	58.48026300000000	784.72504000000004	53.82083200000000	0.33279800000000	0.00000000000000	0.08469600000000	0.00000000000000	0.00000000000000	0.00000000000000	0.00000000000000	0.00000000000000	0.00000000000000	0.00000000000000	25.31862200000000	0.00000000000000	0.00000000000000	0.00000000000000	0.00000000000000	
4.15664700000000	57.85785200000000	785.11782400000004	53.71471100000000	0.33224000000000	0.00000000000000	0.08465600000000	0.00000000000000	0.00000000000000	0.00000000000000	0.00000000000000	0.00000000000000	0.00000000000000	0.00000000000000	25.29520600000000	0.00000000000000	0.00000000000000	0.00000000000000	0.00000000000000	
4.15831400000000	57.24189000000000	785.38986699999998	53.59416000000000	0.33169800000000	0.00000000000000	0.08461600000000	0.00000000000000	0.00000000000000	0.00000000000000	0.00000000000000	0.00000000000000	0.00000000000000	0.00000000000000	25.26368800000000	0.00000000000000	0.00000000000000	0.00000000000000	0.00000000000000	
4.15998200000000	56.63235300000000	785.54274899999996	53.45924900000000	0.33116900000000	0.00000000000000	0.08457500000000	0.00000000000000	0.00000000000000	0.00000000000000	0.00000000000000	0.00000000000000	0.00000000000000	0.00000000000000	25.22398700000000	0.00000000000000	0.00000000000000	0.00000000000000	0.00000000000000	
4.16164500000000	56.02919400000000	785.57825000000003	53.31007400000000	0.33065100000000	0.00000000000000	0.08453400000000	0.00000000000000	0.00000000000000	0.00000000000000	0.00000000000000	0.00000000000000	0.00000000000000	0.00000000000000	25.17603700000000	0.00000000000000	0.00000000000000	0.00000000000000	0.00000000000000	
4.16332300000000	55.43234000000000	785.49835299999995	53.14676700000000	0.33014200000000	0.00000000000000	0.08449300000000	0.00000000000000	0.00000000000000	0.00000000000000	0.00000000000000	0.00000000000000	0.00000000000000	0.00000000000000	25.11979300000000	0.00000000000000	0.00000000000000	0.00000000000000	0.00000000000000	
4.16498300000000	54.84169800000000	785.30524200000002	52.96949500000000	0.32964000000000	0.00000000000000	0.08445200000000	0.00000000000000	0.00000000000000	0.00000000000000	0.00000000000000	0.00000000000000	0.00000000000000	0.00000000000000	25.05522900000000	0.00000000000000	0.00000000000000	0.00000000000000	0.00000000000000	
4.16665000000000	54.25716200000000	785.00129500000003	52.77845800000000	0.32914100000000	0.00000000000000	0.08441000000000	0.00000000000000	0.00000000000000	0.00000000000000	0.00000000000000	0.00000000000000	0.00000000000000	0.00000000000000	24.98234100000000	0.00000000000000	0.00000000000000	0.00000000000000	0.00000000000000	
4.16831500000000	53.67861100000000	784.58908799999995	52.57389800000000	0.32864400000000	0.00000000000000	0.08436900000000	0.00000000000000	0.00000000000000	0.00000000000000	0.00000000000000	0.00000000000000	0.00000000000000	0.00000000000000	24.90115000000000	0.00000000000000	0.00000000000000	0.00000000000000	0.00000000000000	
4.16998700000000	53.10591700000000	784.07138799999996	52.35609200000000	0.32814700000000	0.00000000000000	0.08432800000000	0.00000000000000	0.00000000000000	0.00000000000000	0.00000000000000	0.00000000000000	0.00000000000000	0.00000000000000	24.81170000000000	0.00000000000000	0.00000000000000	0.00000000000000	0.00000000000000	
4.17165400000000	52.53894700000000	783.45114500000000	52.12536100000000	0.32764700000000	0.00000000000000	0.08428800000000	0.00000000000000	0.00000000000000	0.00000000000000	0.00000000000000	0.00000000000000	0.00000000000000	0.00000000000000	24.71406200000000	0.00000000000000	0.00000000000000	0.00000000000000	0.00000000000000	
4.17331300000000	51.97756300000000	782.73149200000000	51.88206100000000	0.32714200000000	0.00000000000000	0.08424800000000	0.00000000000000	0.00000000000000	0.00000000000000	0.00000000000000	0.00000000000000	0.00000000000000	0.00000000000000	24.60833400000000	0.00000000000000	0.00000000000000	0.00000000000000	0.00000000000000	
4.17499100000000	51.42163000000000	781.91573200000005	51.62659200000000	0.32663000000000	0.00000000000000	0.08420900000000	0.00000000000000	0.00000000000000	0.00000000000000	0.00000000000000	0.00000000000000	0.00000000000000	0.00000000000000	24.49464000000000	0.00000000000000	0.00000000000000	0.00000000000000	0.00000000000000	
4.17664900000000	50.87101800000000	781.00733800000000	51.35939100000000	0.32610900000000	0.00000000000000	0.08417200000000	0.00000000000000	0.00000000000000	0.00000000000000	0.00000000000000	0.00000000000000	0.00000000000000	0.00000000000000	24.37313300000000	0.00000000000000	0.00000000000000	0.00000000000000	0.00000000000000	
4.17831300000000	50.32559800000000	780.00993500000004	51.08093500000000	0.32557600000000	0.00000000000000	0.08413500000000	0.00000000000000	0.00000000000000	0.00000000000000	0.00000000000000	0.00000000000000	0.00000000000000	0.00000000000000	24.24399100000000	0.00000000000000	0.00000000000000	0.00000000000000	0.00000000000000	
4.17999000000000	49.78525500000000	778.92730200000005	50.79173800000000	0.32503000000000	0.00000000000000	0.08410000000000	0.00000000000000	0.00000000000000	0.00000000000000	0.00000000000000	0.00000000000000	0.00000000000000	0.00000000000000	24.10742300000000	0.00000000000000	0.00000000000000	0.00000000000000	0.00000000000000	
